# xmcd CD database file
#
# Track frame offsets:
#	150
#	5406
#	27230
#	41448
#	64023
#	75949
#	90572
#	98429
#	110355
#	123202
#	130974
#	141424
#	164994
#	180324
#	191964
#	211116
#
# Disc length: 3033 seconds
#
# Revision: 0
# Processed by: cddbd v1.5.2PL0 Copyright (c) Steve Scherf et al.
# Submitted via: CDex 1.51
#
DISCID=cd0bd710
DTITLE=American Music Abroad Bronze Tour - 2010 AMA Bronze Tour - Disc 1 (of 2)
DYEAR=2010
DGENRE=Jazz
TTITLE0=Jazz Ensemble - Blues Warm-up
TTITLE1=Jazz Ensemble - Get It On
TTITLE2=Jazz Ensemble - Blues in Hoss Flat
TTITLE3=Jazz Ensemble - What is Hip?
TTITLE4=Jazz Ensemble - Sweet Georgia Brown
TTITLE5=Jazz Ensemble - Shiny Stockings
TTITLE6=Jazz Ensemble - Birdland
TTITLE7=Jazz Ensemble - Sing, Sing, Sing
TTITLE8=Concert Choir - Amazing Grace
TTITLE9=Concert Choir - The Lord Bless You And Keep You
TTITLE10=Concert Choir - Down to The River To Pray
TTITLE11=Concert Choir - River in Judea
TTITLE12=Concert Choir - The Song That Goes Like This
TTITLE13=Concert Choir - Who Put The Bomp
TTITLE14=Concert Choir - Heal the World
TTITLE15=Concert Choir - Why We Sing
EXTD=YEAR: 2010
EXTT0=
EXTT1=
EXTT2=
EXTT3=
EXTT4=
EXTT5=
EXTT6=
EXTT7=
EXTT8=
EXTT9=
EXTT10=
EXTT11=
EXTT12=
EXTT13=
EXTT14=
EXTT15=
PLAYORDER=
